<svg id="レイヤー_1" data-name="レイヤー 1" xmlns="http://www.w3.org/2000/svg" viewBox="0 0 562.4 545.17"><defs><style>.cls-1{fill:#fff;}.cls-2{fill:#f29bba;}.cls-3{fill:#bbe2f0;}.cls-4{fill:#66411f;}.cls-5{fill:none;stroke:#66411f;stroke-linecap:round;stroke-linejoin:round;stroke-width:10px;}</style></defs><path class="cls-1" d="M136.77,499.54c3.91,2.23-99,7.89-101.25-12.38s53.91-31.08,53.91-31.08l47.31,22.84s-8.4,15.78,0,20.62Z"/><path class="cls-1" d="M462.66,501.23c0,12.73-23.18,23.07-51.76,23.07S359.14,514,359.14,501.23s23.16-23.07,51.76-23.07,51.76,10.33,51.76,23.07Z"/><path class="cls-1" d="M495.7,202.51s28.14-16.89,42.77,10.12,27,85.51,12.38,93.39-33.76-4.5-33.76-4.5"/><path class="cls-1" d="M510.93,240.59c-4.25-13.35-17.59-38.82-17.59-38.82-23.65-60.64-66.26-73.53-66.26-73.53s1.16-44.12-36.84-43.3-39.67,30.93-39.67,30.93c-27.86-2.65-52-.71-73,4.4-2.23-14.46-11.6-23.57-33.49-20.78C170,109,160.79,235.34,160.79,235.34s-127,8.89-128.49,119.38c-.82,62.14,47.26,100.73,107.47,123.2l172.45.3,8.88,23.15L440.58,482s30.32-9.71,50.33-37,21.83-132.21,21.83-132.21,2.44-58.83-1.81-72.16Z"/><path class="cls-1" d="M196.76,93.37C196.76,44.55,153.84,5,100.88,5S5,44.55,5,93.37s42.91,88.39,95.88,88.39c2.55,0,5.05-.19,7.55-.37L139.05,213l9.18-42.86c29-15.22,48.53-43.87,48.53-76.79Z"/><path class="cls-2" d="M195,434.66s-58.83,35.78-58.83,56.39,34,34,80.67,44.87,79.44-1.81,100.66-28.49,24.88-48.52,24.88-48.52-14,1.21-19.42-3-17-10.92-25.47-9.7S272,463.76,255,455.88s-30.93-23.05-38.2-23.05S195,434.66,195,434.66Z"/><path class="cls-3" d="M409.65,376.13c0,29.31-58,53.07-129.49,53.07S150.7,405.44,150.7,376.13s58-53.07,129.46-53.07,129.49,23.77,129.49,53.07Z"/><path class="cls-4" d="M288.62,367.81c0,4.17-6.09,7.6-13.67,7.66s-13.75-3.31-13.79-7.47,6.1-7.6,13.68-7.66,13.75,3.29,13.78,7.47Z"/><path class="cls-5" d="M274.24,371.36l.55,79.62M194.17,303.77l22.5,64.14L159.3,380.28m7.86-43.87,45,29.25m167.65-29.25S332.57,378,336,378s56.25,18,56.25,18m6.75-31.5-57.38,11.26M160.41,419.66S175,434.3,188.55,436.53s22.5-7.87,31.5-2.23,25.86,19.11,40.5,21.37,31.51-12.37,41.64-7.89,14.63,9,30.38,10.15,42.75-4.52,42.75-4.52M193.05,438.79s-130.52,55.12,0,93.38S341.57,459,341.57,459m-87.77-3.37-22.51,21.38m-141.86-21s-56.17,10.83-53.91,31.08,96.77,12.38,101.25,12.38m324.07,1.69c0,12.73-23.18,23.07-51.75,23.07S357.32,514,357.32,501.23s23.17-23.07,51.77-23.07,51.75,10.33,51.75,23.07ZM277,120.39c21.12-5.22,45.47-7.19,73.57-4.52,0,0,1.67-30.13,39.67-30.93s36.84,43.3,36.84,43.3,68.62,21.38,69.76,112.54m-1.14-38.27s28.14-16.89,42.77,10.12,27,85.51,12.38,93.39-33.76-4.5-33.76-4.5m-6.75-25.88s21.38,190.15-67.5,205.9M68.9,111.94c-15.51,5.14-22.35-8.76-22.77-22.44C45.41,65.05,73.57,60.89,90.8,71.89c18.35,11.72,7.87,29.72-12.53,23.47C59.43,89.58,54.8,64.23,63.68,49c12.91-22.22,36.61-17.15,52.47-.71,4.47,4.65,14.44,15.59,8,22.34-5.15,5.41-18.71,2-21.41-4.24C95.62,49.73,121,51.58,129,56.23c13,7.54,34.8,38.75,12.11,44.25-13.69,3.32-51.93,1.22-50.79-20.34C91.67,54.93,135,65.66,146,76c15.7,14.79,14,50.82-15.21,37-18.6-8.82-3.73-41.42,15.3-32.87,8.07,3.62,13.49,18.14,14.6,26.12,1.76,12.85-2.21,19.24-13.22,25.35-14,7.8-45,14.2-55-4.2-21.78-40.17,60.47-13.52,33.08,6.23-12.5,9-44.74,6.88-54.67-5.22-13-15.73,6.4-38.26,21.44-21.41,18.17,20.34-29.33,26.54-39.93,16.28M196.76,93.37C196.76,44.55,153.84,5,100.88,5S5,44.55,5,93.37s42.91,88.39,95.88,88.39c2.55,0,5.05-.19,7.55-.37L139.05,213l9.18-42.86c29-15.22,48.53-43.87,48.53-76.79ZM357.09,498.14c-12.33,2.56-21.6,2-34,3.3M138,477.92c-60.22-22.47-108.3-61.06-107.48-123.2C32,244.23,159,235.34,159,235.34S168.2,109,242.27,99.49c77.1-9.84-.82,127.76-.82,127.76l51.67,2.84s28.95-134.82,87.25-113.32-6.46,133.62-6.46,133.62,103.36,6.1,117.19,112.67c7.47,57.53-27,94-75.16,115.35"/></svg>