<svg id="レイヤー_1" data-name="レイヤー 1" xmlns="http://www.w3.org/2000/svg" viewBox="0 0 2043.81 1954.96">
  <title>rabbit-animal–Rabbit, Rabbit, Animal, Mammalian, Dance;  (4)</title>
  <path d="M1644,1514c-91.23,33.53-88,36.36-212.17,40a177.63,177.63,0,0,0-.51-61.45c36.83-24.69,159.77-113.49,198.57-224.21,12-34.21,9.42-63.09-1.49-85.67l1.64-4.21c161.26-118,256.24-269.08,168.35-463.43C1649,384.1,1302,463.33,1302,463.33S1406.54,39.53,1193.28,25.9s-177.7,449.25-177.7,449.25l-227.7,47.27S683.38,82.84,438.52,188.22C203.3,289.52,561.68,637.79,561.68,637.79S167.52,770.22,270.2,1128.16c28.55,99.56,92.43,169.16,176.17,216l-8,1.09s10.15,3.64,27.27,8.84c4.66,2.33,9.17,4.94,13.89,7.27l1.46-.25c-1.46,23.38,6,49.59,26.65,76.36,77.12,98.94,237.73,143.73,266.82,151.26a180.17,180.17,0,0,0,31.75,80.83c-81.56,74.58-68.51,59.2-154.65,97.67-93.52,41.78,4.22,226.75,128,164.39,96.21-48.43,144-146.25,160.39-187.77,48.58,8.76,110.5,9.31,189.77-2.84s138.17-30,182.64-51.49c74.84,20.91,252.21,63.82,354.6,31.57,132.14-41.78,73-242.46-23-207.26Z" fill="#fff"/>
  <path d="M798.25,978.5c0,117.52-97.24,212.82-217.19,212.82S363.94,1096,363.94,978.5s97.27-212.79,217.12-212.79S798.25,860.94,798.25,978.5Z" fill="#f7c1d7"/>
  <path d="M763.59,946.87c0,81-67.63,146.68-151,146.68s-150.79-65.71-150.79-146.68,67.6-146.65,151-146.65S763.59,865.89,763.59,946.87Z" fill="#f29bba"/>
  <path d="M563.79,854.51a46.37,46.37,0,1,1-46.36-46.4,46.37,46.37,0,0,1,46.36,46.4Z" fill="#fff"/>
  <path d="M1761.83,778.51c0,117.52-97.23,212.83-217.19,212.83S1327.52,896,1327.52,778.51s97.27-212.79,217.12-212.79S1761.83,661,1761.83,778.51Z" fill="#f7c1d7"/>
  <path d="M1727.17,746.88c0,81-67.63,146.68-151,146.68s-150.8-65.71-150.8-146.68,67.6-146.65,151-146.65S1727.17,665.9,1727.17,746.88Z" fill="#f29bba"/>
  <path d="M1527.37,654.52a46.36,46.36,0,1,1-46.36-46.4,46.36,46.36,0,0,1,46.36,46.4Z" fill="#fff"/>
  <path d="M733.85,1001.3S562.37,1364.73,1158.08,1271c539.35-84.83,239.37-400,239.37-400S1049,1064.93,733.85,1001.3Z" fill="#ea5272"/>
  <path d="M833.67,1437q-26.64,0-52.51-1.07a18.18,18.18,0,1,1,1.52-36.33c144.28,6,310-14.1,454.57-55.17a980.38,980.38,0,0,0,110.1-37.94,18.18,18.18,0,0,1,13.87,33.62,1017.71,1017.71,0,0,1-114.11,39.32C1116.26,1416.57,968.41,1437,833.67,1437Zm-352.58-65.15a18.07,18.07,0,0,1-7.63-1.69c-114-52.77-187.79-135-219.21-244.52-55.62-193.89,30.47-323.39,112.49-397.89C428,672.06,494.92,638.79,531,623.36c-56-58.79-209.74-233.43-186.75-358.26,8.36-45.4,38.16-79.43,88.57-101.14,56.47-24.32,110.73-23.79,161.28,1.6,62.37,31.32,117.24,99.24,163.08,201.87a929.37,929.37,0,0,1,45.39,126L998,452.87C994.62,387,989.15,140.41,1086.36,42c30-30.35,66.85-44.36,109.61-41.61,44.66,2.86,80.22,22,105.71,56.72,73,99.58,40.32,303.17,25.39,376.49a535.46,535.46,0,0,1,172.26,6.34c100.33,20.54,236.8,82.35,317.14,260.16,80.67,178.6,22.06,342-174.19,485.62a18.18,18.18,0,1,1-21.47-29.34C1803.8,1022.39,1857,878,1783.33,715c-59.22-131.07-156.79-211.56-290-239.24-100.56-20.89-185-2.36-185.81-2.17a18.19,18.19,0,0,1-21.66-22.09c.65-2.65,64.48-266.54-13.55-373-19.08-26-44.82-39.74-78.69-41.92-32.21-2.06-58.84,8-81.39,30.87-98.7,99.93-77.28,395.62-77,398.59a18.18,18.18,0,0,1-14.44,19.19L793,532.55A18.19,18.19,0,0,1,771.65,519C771,516.41,709.59,264.21,577.7,198c-41.05-20.6-83.75-20.82-130.53-.68-39.1,16.85-61.08,41.16-67.2,74.33-9.69,52.56,20.49,128.43,87.29,219.39,52,70.85,108.06,125.58,108.62,126.12A18.18,18.18,0,0,1,569,647.46c-.94.32-96.77,33.22-178.62,107.93-107.54,98.15-141.57,219.34-101.16,360.2,28.37,98.87,95.5,173.41,199.53,221.55a18.19,18.19,0,0,1-7.65,34.69Zm603.67-373.07a18.19,18.19,0,0,1-17.65-13.9l-52.95-218.17a18.18,18.18,0,0,1,35.34-8.58l52.94,218.17a18.21,18.21,0,0,1-17.68,22.48Z" fill="#66411f"/>
  <path d="M1081.9,739.28c1.89,17.52-19.89,34.36-48.83,37.56s-53.89-8.47-55.85-26,19.92-34.47,48.87-37.63,53.89,8.43,55.81,26.07Z" fill="#66411f"/>
  <path d="M730.38,1955c-23.91,0-47.29-7.31-68.73-21.86-41.21-27.95-67.27-78.41-63.36-122.7,2.73-31,19.62-54.93,47.56-67.42,17.12-7.63,30.44-13.21,41.14-17.68,39.34-16.45,44.87-18.76,97.31-66.42a199.12,199.12,0,0,1-24.2-63.29c-49.07-13.8-191.94-60.62-265.21-154.9-22.7-29.23-33.2-60.94-30.39-91.71,2.5-27.32,15.51-52.83,36.62-71.84,36.73-33.06,100.27-44.68,145.66-1.08,16.36,15.73,27.6,30.08,37.53,42.74,21.13,27,39.38,50.25,103,81.3a18.18,18.18,0,0,1-16,32.68c-71.1-34.72-92.73-62.32-115.63-91.55-9.64-12.29-19.6-25-34.11-39-29.86-28.69-71-20.76-96.13,1.89-39.29,35.36-26.72,82.18-1.85,114.21,73.15,94.12,227,137.38,257,145.09a18.2,18.2,0,0,1,13.51,15.23,162.51,162.51,0,0,0,28.6,72.67,18.19,18.19,0,0,1-2.54,24c-66,60.34-72.25,63.88-119.2,83.51-10.52,4.4-23.62,9.88-40.34,17.34-15.8,7-24.61,19.64-26.17,37.39-2.76,31.27,17.24,68.87,47.54,89.43,19.53,13.24,51.17,24.81,91,4.73,90.83-45.77,136.24-139.92,151.55-178.28a18.14,18.14,0,0,1,20.09-11.15c50.25,9,112.11,8,183.85-2.92s131.58-27.75,177.44-49.92a18.27,18.27,0,0,1,12.82-1.14c70.84,19.84,246.19,62.66,344.26,31.74,42.55-13.44,57.14-43.81,61.89-66.91,7.38-35.89-4.53-76.83-28.33-97.34-13.52-11.65-28.63-14.55-44.9-8.6-7.89,2.9-15.09,5.57-21.72,8-73,27.14-83,29.74-196.16,33.06a18.34,18.34,0,0,1-14.23-6.23,18.13,18.13,0,0,1-4.23-14.94,159.42,159.42,0,0,0-.46-55.2,18.18,18.18,0,0,1,7.75-18.4c35.61-23.86,154.66-109.91,191.54-215.09,20.81-59.3-8.76-95.7-40.41-108.84-31-12.87-71.56-6.94-89.07,29.32-9.29,19.26-15.15,35.45-20.32,49.74-15.15,41.87-26.1,72.13-98.83,114a18.18,18.18,0,1,1-18.13-31.52c61.19-35.2,68.41-55.12,82.77-94.82,5.46-15.1,11.66-32.22,21.76-53.16.86-1.77,1.75-3.5,2.69-5.19-53,59.21-154.52,102.58-303.06,129.37-208.58,37.61-346.57,16.69-410.16-62.2-58.61-72.71-34.1-169.55-23.12-202.65-15.52-2.62-24.36-4.73-25.78-5.08a18.18,18.18,0,0,1,8.64-35.32h0c1.46.36,148.15,35,368.57-.29,217.92-34.86,337-157,338.18-158.23a18.18,18.18,0,0,1,26.32,25.1c-1.17,1.22-8.42,8.71-21.63,20,24.54,25.62,109.25,123.53,78.76,225.32a158.89,158.89,0,0,1-18.67,40.38,96.35,96.35,0,0,1,39.68-23c24.08-7.13,50.84-5.45,75.35,4.73,50,20.74,88.11,76.55,60.77,154.46-17.53,50-52.69,100.92-104.5,151.36a743.48,743.48,0,0,1-91.53,75.35,194.6,194.6,0,0,1,1.15,34.12c90.57-3,99.75-6.39,163.69-30.16,6.67-2.47,13.91-5.17,21.88-8.09,28.77-10.52,57.58-5.12,81.15,15.2,33.7,29.06,50.24,83.42,40.21,132.2-9.49,46.15-40.23,79.63-86.56,94.26-44,13.87-148.77,28.27-358.46-29.57-48.21,22.28-109.23,39.15-181.52,50.17-69.11,10.55-130,12.24-181.32,5.06-21.09,47.8-71,137.28-163.29,183.81C769.91,1950.05,750,1955,730.38,1955Zm24.71-931.31c-6.31,17.33-36.8,111,14.82,174.8,53.91,66.66,183.68,83.63,375.27,49.09,180.47-32.55,288.14-90.6,311.37-167.89,25.81-85.86-56.39-175.71-72.54-192.3-56.61,41.87-160.33,102.64-308.47,126.34C932,1036.65,820,1031.22,755.09,1023.65ZM696.9,965.41A18.18,18.18,0,0,1,683.48,935L803,803.94l-172,36.86a18.18,18.18,0,0,1-7.62-35.56l174.29-37.35L640.7,694a18.18,18.18,0,1,1,15.48-32.9l206.06,96.94a18.19,18.19,0,0,1,5.69,28.71L710.34,959.48A18.16,18.16,0,0,1,696.9,965.41Zm704.82-190.13a18.71,18.71,0,0,1-2.87-.23L1168,738.33a18.19,18.19,0,0,1-13.46-26L1255.07,508a18.18,18.18,0,1,1,32.63,16.05l-76.59,155.63,159.5-79.5a18.18,18.18,0,0,1,16.22,32.55l-157.51,78.5,175.24,27.88a18.18,18.18,0,0,1-2.84,36.14Z" fill="#66411f"/>
  <path d="M151.48,1689.62c0,31.82-33.89,57.6-75.74,57.6S0,1721.44,0,1689.62s33.89-57.56,75.74-57.56S151.48,1657.84,151.48,1689.62Z" fill="#66411f"/>
  <path d="M384.81,1657.81c0,32.72-34.58,59.08-77.26,59.08s-77.27-26.47-77.27-59.08,34.58-59.09,77.27-59.09S384.81,1625.19,384.81,1657.81Z" fill="#66411f"/>
  <path d="M133.3,1689.62a18.17,18.17,0,0,1-18.18-18.18v-260.6a18.18,18.18,0,0,1,22.32-17.7l233.33,54.54a18.17,18.17,0,0,1,14,17.7v175.74a18.18,18.18,0,0,1-36.36,0V1479.8l-197-46v237.68A18.17,18.17,0,0,1,133.3,1689.62Z" fill="#66411f"/>
  <path d="M1558.06,304.39c0,31.82-33.93,57.56-75.74,57.56s-75.78-25.74-75.78-57.56,33.92-57.52,75.78-57.52S1558.06,272.72,1558.06,304.39Z" fill="#66411f"/>
  <path d="M1791.39,272.72c0,32.73-34.62,59.09-77.27,59.09s-77.27-26.58-77.27-59.09,34.55-59.09,77.27-59.09S1791.39,240,1791.39,272.72Z" fill="#66411f"/>
  <path d="M1539.88,304.39a18.18,18.18,0,0,1-18.18-18.18V25.46A18.18,18.18,0,0,1,1544,7.76L1777.35,62.3a18.18,18.18,0,0,1,14,17.7V256a18.18,18.18,0,0,1-36.36,0V94.43l-197-46.05V286.21A18.18,18.18,0,0,1,1539.88,304.39Z" fill="#66411f"/>
  <path d="M1905.93,1413.89c0,31.78-33.89,57.56-75.74,57.56s-75.74-25.78-75.74-57.56,33.89-57.59,75.74-57.59,75.74,25.81,75.74,57.56Z" fill="#66411f"/>
  <path d="M1887.75,1413.89a18.17,18.17,0,0,1-18.18-18.18v-260.6a18.19,18.19,0,0,1,23.31-17.44c7,2,170.72,51.37,148.94,145.77a18.18,18.18,0,0,1-35.43-8.17c6.87-29.79-24.66-55.38-52.32-71.6a342.64,342.64,0,0,0-48.14-22.91v235A18.17,18.17,0,0,1,1887.75,1413.89Z" fill="#66411f"/>
</svg>
